<svg width="784" height="829" viewBox="0 0 784 829" fill="none" xmlns="http://www.w3.org/2000/svg">
<g filter="url(#filter0_i_6_355)">
<path d="M563.916 304.301C554.869 300.996 545.25 301.599 537.033 306.545C528.824 311.457 522.69 320.308 520.123 330.583C517.555 340.859 518.805 351.554 523.738 359.751C528.663 367.98 536.867 373.037 546.406 374.377C546.406 374.377 546.406 374.377 546.406 374.377C550.307 374.964 554.252 375.501 558.211 375.983C628.436 384.29 701.458 375.766 762.724 342.966C766.122 341.146 769.424 339.279 772.731 337.319C776.238 335.213 779.744 333.107 783.25 331.001C779.788 323.589 776.326 316.178 772.864 308.766C768.999 310.103 765.133 311.441 761.268 312.778C758 313.889 754.763 314.905 751.464 315.868C692.245 333.059 629.324 326.639 573.171 307.627C570.036 306.556 566.94 305.444 563.916 304.301Z" fill="#2F6F95"/>
<path d="M298.871 592.328C305.583 585.455 309.054 576.383 308.193 566.835C307.35 557.302 302.245 548.074 294.327 541.456C286.41 534.837 276.424 531.447 266.893 532.307C257.343 533.152 249.03 538.175 243.455 545.999C243.455 545.999 243.455 545.999 243.455 545.999C240.582 550.022 237.709 554.045 234.836 558.068C234.542 558.481 234.247 558.893 233.953 559.306L233.913 559.353C211.685 591.313 181.84 618.875 146.786 638.968C112.664 658.129 69.467 669.923 27.5064 675.624C22.8091 676.223 18.1137 676.723 13.4319 677.099C9.24889 677.418 5.06588 677.737 0.882879 678.056C0.882423 686.446 0.881968 694.837 0.881511 703.227C5.06448 703.547 9.24745 703.866 13.4304 704.186C18.5933 704.562 23.7475 704.802 28.9006 704.934C75.2726 705.493 120.959 701.123 167.847 683.927C212.298 666.837 253.596 639.505 287.499 603.99L287.459 604.038C287.813 603.675 288.167 603.312 288.521 602.949C291.971 599.408 295.421 595.868 298.871 592.328Z" fill="#2F6F95"/>
<path d="M452.814 785C452.425 799.227 452.037 813.454 451.648 827.681C480.88 827.681 510.112 827.681 539.344 827.681C538.955 813.454 538.567 799.227 538.178 785C537.733 768.732 537.289 752.465 536.844 736.197C536.788 734.138 536.731 732.078 536.675 730.019L536.673 729.584C535.001 679.923 521.638 630.995 498.205 587.806C474.834 544.576 441.437 507.152 401.657 479.248L401.839 479.383C401.323 479.018 400.811 478.656 400.447 478.402C400.1 478.167 399.877 477.981 400.626 478.639L399.426 477.646C394.015 473.781 389.397 468.693 386.028 462.803C382.653 456.918 380.533 450.238 379.913 443.346C379.284 436.456 380.156 429.362 382.508 422.712C384.851 416.059 388.671 409.857 393.673 404.693L393.285 405.054C394.2 404.17 395.115 403.287 396.03 402.403L395.974 402.455C409.57 389.391 423.166 376.328 436.762 363.264L438.543 361.495C463.52 333.295 479.669 294.639 475.584 254.452C472.301 214.026 443.7 177.596 409.887 161.599L408.519 160.926C393.641 153.484 369.798 149.463 353.148 150.873C338.029 151.023 319.246 156.72 307.289 163.092L305.564 163.978C299.33 167.783 293.095 171.588 286.861 175.393L283.52 177.784C255.573 203.77 227.626 229.755 199.679 255.741C187.761 266.823 175.843 277.904 163.925 288.985C160.122 292.522 156.319 296.058 152.516 299.594C159.378 307.391 166.24 315.188 173.102 322.985C177.093 319.662 181.084 316.339 185.075 313.015C197.58 302.601 210.085 292.187 222.59 281.774C251.915 257.353 281.24 232.933 310.565 208.512L307.224 210.903C313.656 207.445 320.089 203.986 326.522 200.528L324.796 201.414C336.275 196.504 343.113 195.007 354.122 195.128C368.567 195.388 376.236 196.874 389.219 203.58L387.852 202.907C433.991 227.066 433.225 287.817 396.56 322.795L398.34 321.025C384.051 333.327 369.762 345.628 355.473 357.93L355.416 357.981C354.454 358.814 353.492 359.646 352.531 360.478L352.143 360.839C340.437 371.478 331.012 384.713 324.756 399.389C318.483 414.057 315.39 430.148 315.809 446.231C316.208 462.313 320.12 478.367 327.25 492.94C334.361 507.52 344.681 520.6 357.33 530.973L356.13 529.98C357.841 531.47 358.63 532.054 359.293 532.589C359.943 533.104 360.447 533.502 360.95 533.902L361.132 534.037C391.07 557.619 415.193 588.055 431.188 622.038C447.238 656.001 455.142 693.45 454.319 730.453L454.317 730.019C454.261 732.078 454.204 734.138 454.148 736.197C453.704 752.465 453.259 768.732 452.814 785Z" fill="#2F6F95"/>
<circle cx="573" cy="79.0001" r="79" fill="#2F6F95"/>
</g>
<defs>
<filter id="filter0_i_6_355" x="0.881592" y="0.00012207" width="782.368" height="860.311" filterUnits="userSpaceOnUse" color-interpolation-filters="sRGB">
<feFlood flood-opacity="0" result="BackgroundImageFix"/>
<feBlend mode="normal" in="SourceGraphic" in2="BackgroundImageFix" result="shape"/>
<feColorMatrix in="SourceAlpha" type="matrix" values="0 0 0 0 0 0 0 0 0 0 0 0 0 0 0 0 0 0 127 0" result="hardAlpha"/>
<feOffset dy="32.6301"/>
<feGaussianBlur stdDeviation="16.8589"/>
<feComposite in2="hardAlpha" operator="arithmetic" k2="-1" k3="1"/>
<feColorMatrix type="matrix" values="0 0 0 0 0 0 0 0 0 0 0 0 0 0 0 0 0 0 0.25 0"/>
<feBlend mode="normal" in2="shape" result="effect1_innerShadow_6_355"/>
</filter>
</defs>
</svg>
